<?xml version="1.0" standalone="no"?>
<!DOCTYPE svg PUBLIC "-//W3C//DTD SVG 1.1//EN" "http://www.w3.org/Graphics/SVG/1.1/DTD/svg11.dtd" >
<svg xmlns="http://www.w3.org/2000/svg">
<metadata></metadata>
<defs>
<font id="ScrapCasualRegular" horiz-adv-x="865" >
<font-face units-per-em="2048" ascent="1638" descent="-410" />
<missing-glyph horiz-adv-x="802" />
<glyph horiz-adv-x="0" />
<glyph horiz-adv-x="2048" />
<glyph unicode="&#xd;" horiz-adv-x="802" />
<glyph unicode=" "  horiz-adv-x="802" />
<glyph unicode="&#x09;" horiz-adv-x="802" />
<glyph unicode="&#xa0;" horiz-adv-x="802" />
<glyph unicode="!" horiz-adv-x="430" d="M144 515q0 211 74 768q0 229 89 230q19 -1 63 -24q-42 -341 -87 -754.5t-46 -416.5q-5 -14 -55 -14q-38 0 -38 211zM153 57q0 88 69 87q15 0 31 -6q84 -32 83 -99q1 -46 -53 -83h-30q-99 0 -100 101z" />
<glyph unicode="&#x22;" horiz-adv-x="692" d="M152 1225q-4 31 18.5 79t18.5 93q4 23 0 133q-4 22 -16.5 66.5t-12.5 67.5t23 52.5t48.5 29.5t54.5 -38q34 -38 34 -66.5t-12.5 -69.5t-12.5 -86l9 -126q0 -10 9 -51t9 -87t-32 -59q-14 -5 -65.5 -4.5t-72.5 66.5zM406 1294q36 70 24 219q-1 16 -2.5 34.5t-12.5 51.5 q-20 63 4 105t53 42q102 10 102 -100q0 -33 -17 -68t-17 -52t-3.5 -69t1 -72.5t22.5 -58.5q31 -67 -1 -116t-66 -48q-15 0 -43 7q-46 12 -44 125z" />
<glyph unicode="#" horiz-adv-x="1037" d="M79 782.5q0 24.5 7 49.5q12 47 127 46q48 -27 161 -28l28 204l-125 -4q-10 0 -32.5 -9t-68.5 -9t-58 33q-5 14 -5 65.5t65 72.5q32 4 55.5 -16.5t75 -20.5t107.5 -2q18 143 14 181q-32 67 -32 95t23.5 58.5t48.5 30.5t57 -38t32 -66.5t-10 -63t-31 -199.5h174 q18 152 12.5 209t-5.5 75.5t19.5 51t47.5 32.5q85 9 84 -99q0 -33 -24 -57.5t-24 -48t-17 -158.5q115 27 116 28q27 0 56.5 -22.5t29.5 -48.5q0 -25 -36 -54.5t-44 -29.5q6 0 -57 18q-4 1 -38.5 -1.5t-40.5 -2.5q-9 -69 -25 -206q30 1 69 4.5t59 14.5t43.5 11t56 -20 t32.5 -48q10 -102 -87 -102q-32 0 -52.5 17.5t-61 17.5t-71.5 1q-13 -119 -9 -136.5t21 -55t17 -64t-20 -56.5t-39.5 -30t-63.5 28t-44 61.5t40 66.5q25 48 21 188l-185 2q-18 -166 -18 -184t12.5 -37t12.5 -31t-14.5 -40t-26.5 -41.5t-44 -12.5q-64 0 -93 70q9 39 31.5 62 t19.5 68t11 146q-72 -2 -114 -21.5t-68.5 -19.5t-64 25.5t-37.5 50zM483 852q111 0 173 -2q5 84 24 208q-114 0 -176 -2z" />
<glyph unicode="$" horiz-adv-x="1409" d="M98.5 1017q-0.5 46 56.5 111q145 120 367 197q95 32 293 67q40 110 40 160.5t-18.5 68.5t-18.5 43.5t20 53t44 27.5q118 0 118 -71q0 -13 -7 -38.5t-30 -136t-24 -107.5q232 0 304 -67q45 -42 45 -79.5t-23 -64.5q-5 0 -24.5 -7.5t-38.5 -7.5t-46.5 17t-35 56.5 t-34.5 46.5q-48 13 -174 0l-75 -391q510 7 510 -163q0 -117 -106 -214q-77 -70 -215 -123.5t-297 -59.5q-15 -47 -52 -155q-4 -24 9 -60.5t12.5 -52.5t-24 -33.5t-63.5 -16.5q-90 0 -89 57q-2 14 -2 33t19 38.5t32.5 47.5t30.5 142q-275 95 -366 172q-38 50 -38 77.5 t18 56.5t50.5 29t55 -18t22.5 -40q0 -60 13.5 -78.5t83.5 -47.5q39 -23 183 -59l75 354q-500 45 -565 139q-35 51 -35.5 97zM204 1014q0 -76 495 -119l92 391l-167 -36q-94 -29 -187 -59q-141 -56 -226 -159q-7 -9 -7 -18zM752 427q194 0 306 80q155 110 155 180 q0 17 -10 31q-45 66 -388 63z" />
<glyph unicode="%" horiz-adv-x="1546" d="M80 837q0 85 56 149q131 187 357 278q279 112 279 -12q0 -63 -113.5 -182t-217.5 -180q-165 -96 -296 -95q-65 0 -65 42zM206 159.5q17 48.5 47 62t53 22.5q61 52 258 289.5t257 320.5q416 496 418 546q1 89 87 89q44 0 69.5 -26t26 -55t-25.5 -57t-48 -31.5t-89 -91.5 t-132 -174t-373 -452.5t-338 -383.5q-25 -99 -28 -105q-33 -82 -106 -82q-37 0 -58 31q-35 49 -18 97.5zM227 926q0 -35 88 0.5t140 76t117 89.5q86 71 80 103q-7 23 -34 23t-84.5 -27t-96.5 -47q-84 -54 -190 -173q-20 -28 -20 -45zM900 304q0 11 3 24q25 98 168 204 q146 104 208.5 133.5t107.5 29.5q103 0 103 -90q0 -16 -4 -34q-14 -59 -163 -168.5t-223 -129.5t-124 -20q-76 0 -76 51zM1026 355q0 -13 17.5 -13t101.5 43t163.5 112t79.5 104q0 22 -55.5 -2.5t-61.5 -27.5q-50 -19 -182 -130q-63 -53 -63 -86z" />
<glyph unicode="&#x26;" horiz-adv-x="1153" d="M73 939q0 15 8 32q41 93 133 173.5t216 124.5t450 67q25 68 25 108t-14 79t-14 92.5t27.5 79.5t55.5 25.5t51 -24.5t20 -51t-23.5 -138.5t-3.5 -142t32 -56.5q31 -53 -7 -82q-45 -41 -74.5 -41t-42.5 8q-54 28 -161 28t-277 -50q-64 -25 -164 -94t-100 -106q0 -21 37 -26 q227 -33 314 -33t173 59q21 15 79 15t85 -41q8 -12 8 -23q0 -30 -44.5 -62.5t-80.5 -39.5t-47 -11q-166 -15 -284 -104.5t-118 -152.5q0 -28 31 -30q71 -5 217.5 43t209.5 89q104 65 187.5 24.5t83.5 -93.5q0 -20 -13.5 -40.5t-26.5 -84t-50 -147t-37 -114.5l8 -52 q0 -32 -28.5 -60t-54.5 -28t-39 5q-64 22 -64 86q0 33 26 57.5t40.5 57.5t29.5 70q48 95 48 173q0 36 -21 36t-237.5 -63.5t-293 -63.5t-120.5 34t-44 103t63 123q90 77 191 154q-365 -5 -365 108z" />
<glyph unicode="'" horiz-adv-x="424" d="M136 1154q36 66 25 218q-1 20 -1 22q0 -2 1 -4q-3 33 -15 66q-21 63 3.5 105t52.5 42q47 6 74.5 -22t27.5 -68.5t-17 -76.5t-17 -52t-3.5 -68t1 -72t22.5 -57q32 -68 -1 -117.5t-68 -49.5q-14 0 -41 7q-47 12 -44 127z" />
<glyph unicode="(" horiz-adv-x="1167" d="M26 471q0 54 7 108q151 1170 855 1134q89 36 154 36q49 -49 48 -79q0 -45 -94 -73q-38 6 -79 6q-216 0 -376 -135t-245 -351q-53 -133 -92.5 -369.5t-39.5 -328.5q0 -182 60 -355q12 -31 36 -92l20 -52l34 -46q100 -145 299 -196q128 -33 366 -33q31 26 61 26 q64 0 64 -80t-71 -80q-18 0 -100 35q-33 15 -190 15q-252 26 -370 110q-346 245 -347 800z" />
<glyph unicode=")" horiz-adv-x="1167" d="M-96.5 -409q-0.5 -80 72.5 -80q17 0 98 35q33 15 191 15q251 26 370 110q346 245 346 800q0 54 -7 108q-150 1170 -855 1134q-89 36 -153 36q-49 -49 -49 -79q0 -45 95 -73q38 6 79 6q217 0 376 -135t244 -351q53 -133 93 -369.5t40 -328.5q0 -182 -60 -355 q-60 -144 -56 -144q-17 -23 -35 -46q-100 -145 -299 -196q-128 -33 -366 -33q-31 26 -60 26q-64 0 -64.5 -80z" />
<glyph unicode="*" d="M74 940q24 60 55 60.5t69 -25.5h172q-33 30 -133 92q-63 39 -63 66.5t24 59.5q28 15 46 14q23 0 57 -68t105 -99q5 28 5 68t-18.5 100.5t-18.5 70.5q0 32 61.5 32t60.5 -40q0 -17 -16.5 -75.5t-16.5 -93t14 -62.5q17 23 53.5 53t51.5 57q18 60 55 60q25 0 46.5 -24.5 t21.5 -50.5q0 -36 -46 -36q-45 -30 -129 -103q56 -12 75 -6t54 6q35 19 61 18q55 0 59 -74q0 -53 -50 -53q-24 0 -70 11q-18 20 -48 20l-54 -5q-17 0 -27 6q53 -70 100 -110q12 5 21 5q37 0 38 -46q0 -61 -59 -61q-8 -10 -20 -10q-25 0 -52 58q-32 36 -43 59t-38 42 q0 -5 -10 -24t-10 -49.5t20 -90.5q19 -24 18 -42q0 -37 -64.5 -37.5t-64.5 47.5q0 21 22 47q16 37 16 58.5t-16 90.5q-29 -25 -118 -88q0 -64 -43 -65q-24 0 -47 20t-23 42q0 37 67 44q75 49 96.5 74.5t34.5 35.5q-108 0 -206 -41q-17 -4 -30 -4q-45 0 -45 66z" />
<glyph unicode="+" horiz-adv-x="1197" d="M121 1007q10 65 53 66q11 0 52.5 -7t89 -7t113.5 24q13 49 13 91.5t-18.5 85t-18.5 58t24 39.5q16 0 53 9q72 -46 72 -40t-8.5 -27.5t-8.5 -92t11 -144.5q187 -9 234 -4q3 -3 44 10.5t64 13.5q49 0 47 -53q-4 -113 -82 -113q-40 0 -73 32q-37 -10 -67 -10l-115 17 q-23 0 -52 -7q-3 -43 4 -178q27 -62 27 -96q0 -47 -49 -47q-25 -10 -48 -10q-68 0 -68 76q0 33 16 70q5 36 11 38l2 -1q-1 7 -13 126q-58 31 -137 32l-108 -5q-64 0 -64 54z" />
<glyph unicode="," horiz-adv-x="367" d="M-15 -87q0 41 38.5 63t76.5 44q94 79 94 127q0 9 -5 23t-47 41q-69 44 -69 104t35 99q61 35 124 35t72 -47q5 -24 5 -118t-28 -220q-11 -47 -106 -133t-148 -86q-42 0 -42 68z" />
<glyph unicode="-" d="M45 656q0 54 80 62q31 3 71.5 -14t84.5 -14q114 -5 316 0q26 5 63 17t55 12t47.5 -23t29.5 -57.5t-19 -45.5q-50 -29 -79 -29t-63 9.5t-111.5 9.5t-175.5 -5l-99 -4l-120 -8q-80 0 -80 90z" />
<glyph unicode="." horiz-adv-x="329" d="M86 219q0 88 69 88q15 0 30 -6q85 -33 85 -100q1 -45 -53 -82h-32q-99 0 -99 100z" />
<glyph unicode="/" horiz-adv-x="1081" d="M142 177q28 63 51 77t43 26q36 34 291.5 622t279.5 617q0 114 28.5 155t82.5 43q118 4 108 -93q-10 -109 -101 -160q-35 -20 -290.5 -632t-262 -618.5t-6.5 -30.5v-43q-4 -34 -28 -60q-57 -64 -92 -64t-80 61.5t-24 99.5z" />
<glyph unicode="0" horiz-adv-x="1645" d="M74 284q0 172 81 321q425 786 1031 940q61 16 123 15q245 0 260 -226q1 -21 1 -42q0 -276 -218 -584q-183 -258 -470 -478q-176 -111 -263 -151q-168 -79 -311 -79q-234 28 -234 284zM206 283.5q0 -143.5 147 -158.5q218 0 502 219q220 170 343 343q261 370 261 584 q0 98 -61 139t-133 41q-177 0 -446 -224q-108 -91 -312 -304q-79 -83 -190 -289.5t-111 -350zM651 642q0 68 117.5 185.5t188.5 117.5q44 0 47 -57q5 -84 -102 -178q-120 -107 -200 -107q-51 0 -51 39z" />
<glyph unicode="1" horiz-adv-x="320" d="M57.5 90.5q0.5 39.5 42.5 154.5q13 126 13 295.5t-13.5 488.5t-13.5 442q43 79 77 79q63 0 63 -202q0 -77 -13 -120q-4 -147 15 -510.5t21 -426.5q12 -82 11 -122q0 -151 -160 -151q-43 33 -42.5 72.5z" />
<glyph unicode="2" horiz-adv-x="1472" d="M76 1016q0 143 361 341.5t550.5 187t189.5 -262.5q0 -97 -29 -220q-60 -171 -309 -449.5t-401 -387.5q223 110 516.5 198t539.5 126q41 -11 72.5 -40t32 -65.5t-53.5 -65.5q-91 25 -146 26q-200 0 -1105 -348l-76 -9q-21 0 -43 39q0 98 44 134q37 24 75 49 q244 178 436 408q216 254 312 505q5 33 4 60q0 153 -143 154q-181 0 -518 -214q-56 -71 -136.5 -146t-129.5 -74q-43 0 -43 54z" />
<glyph unicode="3" horiz-adv-x="1358" d="M62 1260q0 40 53 66t100 26t68 -2q186 44 482 117q24 7 85.5 34t92.5 27q65 0 119 -95q0 -197 -255 -359q189 9 190 9q244 0 298 -201q2 -28 2 -57q0 -335 -291 -572q-261 -215 -609 -245q-109 -10 -119 -10q-135 0 -135 99q0 26 10 60q28 33 92 33t188 -69 q195 18 387.5 147.5t292 306t41.5 324.5q-88 68 -237 68t-302.5 -62t-217.5 -146q-69 -74 -168 -74t-99 86q0 8 1 17q51 46 72.5 54.5t95.5 14.5q166 98 336 216q291 204 291 278q0 10 -5 16q-147 0 -422 -94.5t-386 -94.5q-51 42 -51 82z" />
<glyph unicode="4" horiz-adv-x="1205" d="M104 880q0 29 29 45q64 28 127 56q158 108 342 238t271 230q0 29 30 72.5t65 43.5q12 0 23 -5q43 -37 55 -62q15 -33 8.5 -189.5t16.5 -479.5q79 -31 79 -90q0 -49 -70 -54l4 -512q26 -67 27 -102q0 -71 -120 -71q-68 0 -68 72q0 31 17 54q0 16 12.5 164.5t12.5 266.5 t-36 135q-451 52 -714 52q-43 8 -64 29q-21 26 -43 53q-4 49 -4 54zM355 874q58 -3 261 -28t313 -20q8 60 1 231.5t-21 249.5q-18 -6 -162.5 -115.5t-268.5 -209.5q-61 -55 -123 -108z" />
<glyph unicode="5" horiz-adv-x="1614" d="M75 419q0 34 27 76q20 136 161 752q-2 19 -2 36q0 81 39.5 126t92.5 45t92 -37q371 7 713 128q110 0 110 -73q0 -56 -80 -100q-122 -4 -388 -46.5t-355 -49.5q-115 -47 -193 -334q-58 -215 -74 -447q36 9 301.5 197t429.5 283q276 160 423 160q121 0 159 -106 q9 -36 9 -73q0 -229 -349 -531q-269 -213 -539 -425q-19 -1 -34 -1q-89 0 -88 50q0 33 36 88q191 41 517.5 327t326.5 455q0 45 -29 74q-226 0 -528 -191q-167 -106 -453 -348q-78 -113 -215 -113q-110 0 -110 78z" />
<glyph unicode="6" horiz-adv-x="1436" d="M63.5 521.5q-0.5 148.5 97 373t260.5 417.5q68 62 155 141q158 144 220 27q15 -27 14 -49q0 -68 -119 -69q-20 0 -42 2q-147 -111 -300 -385.5t-153 -483.5q0 -153 96 -226q73 350 510 650q285 140 397 140q173 0 173 -220q0 -266 -307 -501q-264 -200 -563 -260 q-18 -77 -105.5 -77t-87.5 72q0 8 2 16q-126 98 -186.5 191t-61 241.5zM412 237q0 -49 49 -57q50 0 149 22q645 333 645 614q0 24 -5 46q-24 77 -112 77t-230.5 -90.5t-256.5 -194.5q-68 -97 -136 -192q-103 -155 -103 -225z" />
<glyph unicode="7" horiz-adv-x="1419" d="M64.5 1209q-0.5 46 34.5 81t74.5 35t70.5 -13q223 30 526 96.5t442 136.5q17 4 31 4q70 0 71 -87q-1 -62 -31 -105q-45 -147 -118.5 -464t-138.5 -592q3 -164 -33 -240.5t-82.5 -77t-76.5 37t-30 85.5q0 75 72 128q12 64 132 526t120 597q-140 0 -416.5 -77t-371.5 -87 q-24 -10 -87.5 -46t-97 -36t-66.5 14q-24 38 -24.5 84z" />
<glyph unicode="8" horiz-adv-x="1444" d="M66 787q0 132 203 363q161 183 171 195q69 88 127 88q37 0 65 -41q77 46 216 100q204 78 266 44q128 -94 127.5 -225t-138.5 -285q-105 -118 -196 -164q204 51 253 51q108 0 190 -112q30 -41 30 -91q0 -138 -215 -321q-187 -161 -439 -281.5t-365 -104.5 q-173 23 -173 139q0 187 420 576q-247 -56 -344 -56q-198 0 -198 125zM216 854q0 -66 119 -66q195 0 472 164q91 37 205 155.5t113 215.5q0 47 -30 82q-34 22 -107.5 22.5t-180.5 -46t-150 -98.5q-21 -18 -60.5 -19.5t-59.5 -13.5q-90 -87 -178 -173q-143 -150 -143 -223z M333 178q0 -57 71 -70q210 47 424 172t354 286q38 66 61 90q0 123 -118 123q-151 0 -505 -215q-64 -50 -176 -178t-111 -208z" />
<glyph unicode="9" horiz-adv-x="1353" d="M60 882q0 107 67.5 233t161 206.5t258.5 145.5t278.5 70.5t142.5 5.5q120 0 192.5 -42.5t131.5 -169.5q-23 -249 -257 -607q-56 -86 -403 -549q-33 -92 -70.5 -133.5t-114.5 -41.5q-56 13 -56 50.5t42 85.5t79 73q4 6 264 349.5t313 468.5q-78 -101 -337 -225.5 t-450 -123.5q-73 0 -124 21q-118 49 -118 183zM190 926q0 -107 116 -119q210 0 424.5 98.5t358.5 253.5q58 62 58 120.5t-60 101t-139 56.5q-398 0 -637 -251q-121 -127 -121 -260z" />
<glyph unicode=":" horiz-adv-x="367" d="M47 345.5q0 56.5 78 120.5q25 10 69 10t90 -34t46 -87q0 -157 -115 -157q-65 0 -116.5 45.5t-51.5 102zM47 936.5q0 56.5 78 121.5q24 10 68 10t90.5 -34.5t46.5 -87.5q0 -156 -115 -156q-65 0 -116.5 45t-51.5 101.5z" />
<glyph unicode=";" horiz-adv-x="367" d="M-15 -100q0 54 38.5 76t76.5 44q94 79 94 127q0 9 -5 23t-47 41q-69 44 -69 104t32 96.5t92 36.5t120 -80q30 -40 30 -102q0 -109 -66 -202q-39 -56 -125.5 -137t-132.5 -81q-38 0 -38 54zM61 821q0 56 77 122q25 10 69.5 10t90.5 -34.5t46 -87.5q0 -157 -115 -157 q-66 0 -117 45.5t-51 101.5z" />
<glyph unicode="&#x3c;" horiz-adv-x="1109" d="M56 1088q0 31 39 51q121 32 347 148t373 208q29 68 90 68q75 1 90 -88q-24 -49 -78.5 -63t-109.5 -25q-184 -129 -516 -305q143 -145 632 -538q66 6 104 -29.5t38 -80.5q0 -62 -58 -62q-79 0 -200 146q-243 181 -655 472q-32 7 -64 37t-32 61z" />
<glyph unicode="=" horiz-adv-x="1081" d="M111 1058q0 52 66 73q32 4 79.5 -18.5t90.5 -18.5q151 -7 388 0q27 4 70.5 16.5t65.5 12t50 -22.5t28 -48q0 -25 -37.5 -56t-65.5 -31t-69 11t-134.5 11t-213.5 -4l-118 -4q-10 0 -50.5 -9.5t-86.5 -9.5t-58 33q-5 13 -5 65zM113 782q0 24 8 50q9 47 126 46 q59 -32 146 -26q137 -4 342 0q33 3 67 14.5t58.5 11.5t57 -20t35 -57.5t-26 -65t-68.5 -27.5t-76 17.5t-61 17.5l-282 5q-90 0 -106 -3.5t-53.5 -21t-65 -17.5t-64.5 26t-37 50z" />
<glyph unicode="&#x3e;" horiz-adv-x="1109" d="M46 477q0 46 38 81.5t104 29.5q505 407 632 537q-331 174 -518 306q-55 12 -108.5 25t-77.5 61q15 90 89 90q61 0 91 -68q142 -90 369.5 -207t348.5 -150q40 -20 40 -51t-31.5 -61t-63.5 -38q-99 -62 -353.5 -250t-303.5 -221q-121 -145 -200 -146q-57 0 -56 62z" />
<glyph unicode="?" horiz-adv-x="954" d="M24 1510q0 70 74 108q33 12 126 50q16 1 131 39t206.5 38t172 -48t134 -173t53.5 -245q0 -174 -132 -303q-78 -77 -149.5 -106t-156.5 -44.5t-112 -27.5q-47 -22 -55 -75q-4 -27 18.5 -141.5t39.5 -203.5q11 -39 11 -58q0 -39 -47 -57q-18 -7 -44.5 -7t-51.5 23t-25 51 t7 48q31 83 20 157q0 95 -55 188q-25 43 -25 76t25 62q41 34 60 40t72 6t55 1q68 18 155.5 40.5t160.5 83.5q109 91 110 232q0 39 -16 122q-34 169 -109 209q-29 11 -62 23t-99.5 12t-181 -41.5t-110.5 -42.5q15 -95 -34.5 -119.5t-74 -24.5t-57.5 38t-34 70zM193 6 q0 73 51 98q123 0 123 -84q0 -47 -51 -79h-47q-76 0 -76 65z" />
<glyph unicode="@" horiz-adv-x="1275" d="M-7 816q0 65 53 187.5t126 205.5q238 272 646 307q24 2 49 2q209 0 348.5 -138t140.5 -333q0 -43 -8 -88q-39 -209 -185 -373q-113 -127 -221.5 -172t-176.5 -45t-89 41q-214 -99 -344 -99.5t-144 99.5q-6 42 -6 80q0 106 49 193q21 39 104 140q133 164 293 164 q99 0 155.5 -49t56.5 -96q0 -9 -30.5 -158.5t-30.5 -176.5q0 -16 28 -15q84 0 202 92q149 116 203 294q31 101 31 188q0 252 -229 320q-77 23 -177 23q-434 0 -661 -352q-78 -120 -78 -210l14 -80q0 -44 -48 -54l-55 14q-16 24 -16 89zM304 438q14 -24 50 -24t163 50.5 t161.5 119.5t34.5 212q0 29 -31 49t-65.5 20t-77.5 -14.5t-114.5 -84.5t-120.5 -156q-34 -109 0 -172z" />
<glyph unicode="A" horiz-adv-x="1263" d="M15 92.5q0 34.5 19 59.5q56 71 138 477q70 163 161.5 445t91.5 335q-10 35 -10 64q0 93 88 93h2q45 0 69 -27.5t54 -99t61 -131t98 -227.5t120 -237q51 6 193.5 41.5t282.5 35.5q-120 -76 -266.5 -126.5t-176.5 -73.5q40 -72 145.5 -322.5t140.5 -298.5q20 -37 20 -64 q0 -63 -98 -63q-8 -2 -17 -2q-75 0 -75 117q0 21 3 46q-33 65 -111 278.5t-111 274.5q-70 0 -251 -62.5t-284 -106.5q-3 -10 -108 -329q10 -36 10 -66q0 -115 -98 -115q-37 0 -64 25t-27 59.5zM349 687q41 0 225.5 55.5t198.5 58.5q-47 75 -127 272.5t-108 240.5 q-5 3 -32 -110.5t-34 -113.5q-40 -114 -66.5 -220.5t-56.5 -182.5z" />
<glyph unicode="B" horiz-adv-x="1576" d="M8 1301q0 111 62 111q49 0 119 -61q72 31 232.5 55t315.5 25q328 0 384 -112q16 -42 15 -83q0 -111 -114 -229l-154 -144q351 50 469 50t200 -20q20 -25 32 -47q0 -199 -179 -349q-60 -50 -334 -203q-201 -88 -403 -177q-282 -115 -419 -115q-99 99 -115 374 q-62 99 -62 129.5t26.5 77t42.5 99.5q-36 373 -118 619zM189 1171q0 -101 29 -286t63 -198q25 0 241 98q150 69 298 199t148 227q0 75 -103 109q-162 4 -186 4q-351 0 -490 -153zM230 411q0 -53 28.5 -144.5t73.5 -117.5l78 -4q22 0 267 110q205 71 427 197q310 177 310 302 q0 45 -126 45q-215 0 -574 -103.5t-480 -215.5q-4 -16 -4 -69z" />
<glyph unicode="C" horiz-adv-x="1438" d="M103 719q84 206 250 405.5t372 312.5q63 26 122 26q129 0 129 -131v-2q0 -76 -222 -76q-177 -63 -324 -242.5t-232 -384.5q-51 -164 -51 -281q0 -222 180 -222q42 0 92 13q405 99 517 151q163 76 403 306q0 51 29.5 103t77.5 52q33 0 33 -58t-21 -64q-73 -132 -88 -150 q-72 -90 -273 -208t-357 -177q-217 -84 -436 -90h-13q-272 0 -272 331q0 180 84 386z" />
<glyph unicode="D" horiz-adv-x="1649" d="M40 1308q0 40 20 71t46 32q59 2 254 18q184 15 302 15h14q461 0 782 -205q88 -57 119 -117t31 -146q-29 -244 -352 -466q-145 -100 -424 -231.5t-381 -164.5q-41 -10 -82 -19q-15 -4 -77 -57q-54 -18 -91 -18q-98 0 -99 127l3 78l1 976q-66 32 -66 107zM238 930 q0 -110 14 -306q13 -172 13 -233v-15l-5 -65q0 -33 32 -61h124q361 122 668 321q364 236 364 421q1 93 -97 164q-283 170 -661 170h-4q-225 0 -394 -72q-54 -92 -54 -324z" />
<glyph unicode="E" horiz-adv-x="1645" d="M42 1184q0 54 94.5 96t184.5 42q118 29 431 68t459 39q128 14 140 14h1q121 0 139 -121q0 -58 -55 -58h-2q-57 0 -116 58q-228 0 -576.5 -47.5t-413.5 -129.5q0 -83 17.5 -251.5t17.5 -267.5q77 16 511 141t476 139q90 32 123.5 32t80.5 -26q28 -34 28 -58 q0 -40 -107 -69q-152 -33 -353 -77q-388 -86 -722 -255l-19 -191q0 -87 48 -109q627 148 1029 199q164 50 193.5 50t100.5 -41q1 -6 1 -12q0 -122 -308 -122q-251 -40 -529 -86t-442 -139h-166q-80 49 -80 136l17 152q0 35 -12 62q-114 59 -114 116t114 98q0 89 -28 290 t-59 226q-104 48 -104 102z" />
<glyph unicode="F" horiz-adv-x="1492" d="M38 768q16 28 53 28l48 -2q31 0 52 13v-4q1 0 5 132q2 52 2 90q0 76 -7 96q-85 59 -85 110t66 79q57 24 139 24h24q220 20 679 63q84 24 160 31q87 3 173 7q25 9 47 9h4q79 0 79 -86q0 -45 -24.5 -82t-64 -37t-81.5 50q-156 0 -563.5 -39t-408.5 -69q0 -88 -5.5 -123 t-5.5 -64t11 -168q59 0 194 19t236 46t343.5 54.5t410.5 27.5q36 -36 37 -64q0 -60 -170 -76q-99 -4 -199 -7q-436 -31 -852 -185q-13 -161 -13 -265q0 -115 16 -159q11 -25 39 -40t39 -43q0 -88 -34 -110q-32 -22 -119 -22h-8q-55 26 -55 166l18 318q0 91 -24 126 q-101 6 -128.5 33.5t-27.5 122.5z" />
<glyph unicode="G" horiz-adv-x="1805" d="M142 872q122 229 326 417q170 157 291 157q76 0 133 -62q26 -59 26.5 -71.5t-17.5 -32.5q-61 -33 -164.5 -45.5t-170.5 -44.5q-144 -124 -273 -330.5t-129 -379t119 -274.5q142 -65 283 -66h2q140 0 311 81q70 33 322 181q53 30 88.5 121t35.5 195.5t-54 159.5 q-27 5 -74.5 5t-197.5 -19.5t-228 -19.5q-65 -29 -103 -30q-64 0 -102 85q0 123 82 123q3 0 109 -13q77 -30 182 -30t315.5 47.5t282.5 55.5q66 16 161 37t163 21q93 0 93 -51q0 -29 -31 -75q-32 -25 -56.5 -25t-67.5 20q-84 0 -201 -24.5t-170 -75.5q40 -101 40 -199 q0 -159 -93 -286.5t-225 -204.5q-304 -223 -592 -223q-69 0 -140 13q-398 71 -398 419q0 215 122 444z" />
<glyph unicode="H" horiz-adv-x="1616" d="M29 1261q0 42 24.5 68t57.5 26q66 0 100 -93q6 -196 13 -429t37 -334q56 31 408 66.5t485 64.5q12 6 12 69v5q0 68 -38 343q-34 253 -34 305v7q39 88 79 88h1q28 0 47 -38.5t19 -80t-11 -66.5q11 -53 39 -294t50 -319q20 -3 44 -3l208 21q60 0 92 -32q0 -31 7 -45 q-32 -32 -333 -68q-16 -15 -16 -56.5t22.5 -144t24.5 -133.5q-6 -62 -38 -80q-30 -17 -93 -16h-7q-20 59 -20.5 84t17 52.5t17.5 78.5t-44 192q-624 -74 -938 -157q-12 -26 -11 -62l20 -172q0 -90 -100 -105q-43 8 -55 28q-4 6 -16 58q17 180 17 465t-50 619q-37 46 -37 88z " />
<glyph unicode="I" horiz-adv-x="1993" d="M97 1163q0 31 19 60q0 90 311 121q194 11 389 22v8q0 35 34 59q38 27 84 27q73 0 75 -62q69 -14 139 -14h6q74 0 228 21.5t243 21.5t169 -10q32 -11 111 -51q0 -46 5 -72q-22 -21 -68 -21t-114 10.5t-146 10.5t-289.5 -24t-265.5 -29q-29 -67 -29 -219t23 -405t24.5 -272 t1.5 -28.5t-6 -18.5t-6 -12.5t24 -16.5q74 21 355 68.5t338.5 58.5t132.5 11q136 -1 136 -63q0 -34 -44.5 -43t-82.5 -15q-176 -14 -330.5 -47.5t-279.5 -50.5q-76 -22 -128 -22.5t-106 -25.5q1 -7 1 -13q0 -35 -19 -59q-22 -28 -54 -28q-52 0 -85 68q-27 0 -150 -12.5 t-225 -12.5t-190 25q-54 40 -54 64t29 42l58 36q40 -1 85 -26t129.5 -25t317.5 57q0 173 -18 558.5t-52 408.5q-62 10 -140 10q-223 0 -391 -63q-16 -85 -97 -85q-39 0 -68.5 23.5t-29.5 54.5z" />
<glyph unicode="J" horiz-adv-x="1904" d="M44 780q0 61 28.5 108.5t69 47.5t76.5 -20q77 -58 103 -88.5t26 -98.5q187 -258 871 -552q120 -52 214 -52q321 0 321 556q0 228 -53 478l-80 42q-51 35 -51 118q0 48 26.5 91t66.5 43q19 0 38 -12q92 -58 133.5 -298.5t42.5 -464.5v-15q0 -213 -15 -295 q-30 -172 -149 -269t-257 -97q-35 0 -68 7q-401 27 -1140 606q-66 31 -132 63q-71 41 -71 102z" />
<glyph unicode="K" horiz-adv-x="1552" d="M36 1375q0 33 24 54.5t56 21.5q62 0 93 -67q0 -484 -1 -484t-2 102q2 -219 27 -387q28 -9 60 -9h6q167 0 411 215q190 168 316 352q17 121 86 121q36 0 67 -33.5t31 -68.5t-28 -55q-98 -103 -194 -208q-110 -113 -398 -314q22 -18 158 -24t144 -17q177 0 359.5 -27 t325.5 -35q66 -41 66 -75.5t-74 -53.5q-35 4 -427 55.5t-656 52.5q-95 -68 -96 -69q-52 -32 -109 -39q-7 -15 -7 -44l13 -186q0 -151 -115 -151q-75 0 -75 73q0 55 39 114q1 46 1 97q0 488 -101 1089z" />
<glyph unicode="L" horiz-adv-x="1289" d="M58 1214q0 166 95 166q46 0 94 -43q23 -46 23 -118l-6 -246q0 -59 4 -161.5t35 -295t61 -291.5q178 20 388 45t337.5 65t180.5 40t105 -33q-22 -58 -173 -98q-80 -21 -348.5 -64.5t-415 -97.5t-230.5 -54t-84 99q0 66 38 66q17 29 17 178q-1 5 -1 9q0 156 -41 461 t-79 373z" />
<glyph unicode="M" horiz-adv-x="2323" d="M33 117q0 72 30 107q23 359 56 1035q-2 14 -2 27q0 52 31 80q31 30 74 30h1q41 0 73 -28t32 -80q0 -14 -3 -29q21 -21 118.5 -172.5t306 -404.5t288.5 -276q41 49 240 296t308 361q94 74 386 378q32 13 61 13q98 0 98 -97q0 -47 -32 -98q36 -324 77.5 -696t96.5 -372 q23 -76 23 -118t-38 -53q-26 -9 -115 -9q-50 29 -50 65q0 2 4 52q2 25 2 61q0 119 -23 351q-30 302 -52 505q-8 16 -20 100.5t-18 93.5q-102 -48 -461.5 -447.5t-396.5 -505.5q0 -88 -91 -88q-46 0 -46 26q-334 397 -735 858q-20 -44 -41 -268t-21 -408q0 -3 -1 -7 q0 -178 26 -217q0 -90 -12 -121q-20 -50 -85 -50h-3q-86 0 -86 106z" />
<glyph unicode="N" horiz-adv-x="1499" d="M30 171.5q0 38.5 18 92.5q45 135 45 509q0 158 -7 364q-42 52 -42 93q0 71 95 71q33 0 69 -12q38 -39 479 -361.5t608 -472.5q9 9 9 142.5t-20 521.5l-20 372q-18 0 -38 31.5t-20 64.5q0 79 116 79q70 -24 83 -47q6 -10 6 -66q-21 -116 -21 -366t18.5 -536.5t38.5 -403.5 q35 -103 35 -119t-48 -66.5t-65.5 -50.5t-46.5 28.5t-29 111.5t-29 132q-38 89 -490 439.5t-551 350.5q-11 0 -15 -6q-6 -110 -5.5 -330.5t5.5 -551.5q6 -49 6 -77q0 -106 -109 -106q-12 13 -35 36t-34 37q-6 58 -6 96.5z" />
<glyph unicode="O" horiz-adv-x="2108" d="M33 337.5q0 154.5 104 327.5q86 106 170 214q107 115 320 243q57 36 107 36h6q47 0 89 -9q45 -9 56 -9q113 62 304 108.5t372 46.5q344 0 466 -173q57 -80 56 -167q0 -258 -423 -514q-577 -349 -1084 -428q-81 -13 -151 -13q-198 0 -295 91.5t-97 246zM177 318.5 q0 -91.5 68 -142.5t221 -70q135 0 458.5 117.5t592.5 278.5q321 190 413 363q15 38 15 73q0 134 -243 244q-60 4 -121 4q-575 0 -993 -384q-91 -61 -113.5 -61.5t-41.5 25.5q-46 0 -114 -84q-17 -20 -90 -128q-52 -144 -52 -235.5z" />
<glyph unicode="P" horiz-adv-x="1504" d="M26 563q0 36 20 75t39 44q4 38 4 87l-17 409q0 101 13 170q0 75 54 75q29 0 54.5 -25t25.5 -51.5t-6 -43.5q291 146 758 146q233 0 368 -47q210 -98 210 -210q0 -149 -373 -329q-235 -112 -776 -248q-118 -29 -154 -85.5t-36 -172.5l3 -180q20 0 39.5 -28.5t19.5 -60.5 q0 -55 -59 -77q-135 0 -135 80l7 86l12 231q0 66 -12 94q-59 0 -59 61zM213 1190q1 -42 8.5 -255t7.5 -264q370 93 714 239q145 43 286 113q194 97 194 169q0 19 -14 36q-23 50 -161 81.5t-330.5 31.5t-363 -47t-233.5 -140q-20 -15 -51.5 -15t-56.5 51z" />
<glyph unicode="Q" horiz-adv-x="2254" d="M53 370q65 125 138 209t211 194q290 326 760 494q230 82 516 82q177 0 307 -35q258 -71 258 -257q0 -83 -56 -184q-90 -112 -204.5 -189t-246.5 -143t-153 -84q94 -127 187 -252q37 -44 91 -44q20 0 35.5 -21.5t15.5 -46.5q0 -62 -88 -63q-106 15 -185.5 146t-157.5 264 q-224 -138 -560.5 -257.5t-624.5 -119.5q-253 0 -253 209q0 45 10 98zM188 299q0 -122 141 -122q10 0 20 1q255 14 576 123t488 236q0 41 -43.5 110.5t-43.5 104t51 66.5q12 6 21 6q36 0 71 -78l62 -164q90 0 301 139q280 182 275 323q0 190 -493 191q-407 0 -802 -254 q-135 -109 -165.5 -159t-31.5 -104q-23 -63 -45 -88t-65.5 -25t-102.5 13q-81 -37 -147.5 -136t-66.5 -183z" />
<glyph unicode="R" horiz-adv-x="1747" d="M59 1341q0 79 108 79q60 -40 202 -40l266 13q132 13 261 13h19q432 0 514 -128q27 -43 27 -93q0 -129 -152 -266t-278 -173h18q142 0 396 -88q272 -94 377 -165q21 -32 21 -61q0 -72 -84 -72q-39 0 -71 25q-217 118 -359 173t-287 55q-266 0 -612 -228h-90 q-15 -27 -15 -81q0 -39 8 -92q18 -126 18 -155q0 -55 -80 -55q-99 0 -99 91q0 17 5 35q39 156 39 391.5t-85 681.5q-66 71 -67 140zM253 1259q0 -85 25 -358t41 -357l140 42q142 49 221 109q287 80 598 381q44 64 43 105q0 61 -111 77q-93 9 -166 15.5t-131 6.5 t-165.5 -11.5t-157.5 -11.5q-66 1 -176 7q-41 2 -73 2q-56 0 -88 -7z" />
<glyph unicode="S" horiz-adv-x="2009" d="M42 1000q0 188 336 360q109 52 219 105q224 77 521 107q131 0 147.5 -7t54 -48.5t37.5 -60.5t-27.5 -45t-28.5 -28q-68 0 -86 12q-52 36 -65 42q-53 18 -121 18h-7q-252 0 -556.5 -177t-304.5 -309q0 -67 104 -94t371 -56.5t428 -29.5l334 14q531 -1 581 -257q2 -9 2 -17 q0 -119 -290 -238q-219 -90 -426 -124q-148 -28 -298.5 -58t-229.5 -107q-196 0 -196 73q0 24 23 56q29 55 89 55h2q36 0 82 -19q69 0 358 66.5t495 144.5q266 100 266 180q0 13 -7 24q-117 102 -363 103l-554 -8q-491 0 -796 102q-94 113 -94 221z" />
<glyph unicode="T" horiz-adv-x="1095" d="M-167 1452q0 36 44 67t90 31t211.5 19t250 19t135.5 -10q184 0 291 10t240 15q28 10 66 10t67 -32t29 -63.5t-9 -50.5q-44 -59 -85 -59q-1 0 -2 -1q-40 0 -66 26q-34 20 -97.5 20t-220.5 -18.5t-247 -20.5q-33 -76 -49 -292q-8 -169 -20 -399q-11 -212 -11 -484v-46 q26 -35 26 -77q0 -85 -98 -105q-104 16 -104 59q0 15 11 55.5t14 67.5q19 56 35 369q16 304 16 546v15q0 248 -15 285q-59 20 -133 20q-1 0 -2 1q-75 0 -256 -36q-111 0 -111 59z" />
<glyph unicode="U" horiz-adv-x="1623" d="M21 409.5q0 163.5 34 483.5t34 452q0 95 79 95h2q36 0 63 -26.5t27 -62t-16 -82t-44.5 -274t-28.5 -417.5q0 -300 79 -334q36 -12 75 -12q206 0 527 322q169 202 339 403q211 273 211 401q0 13 -2 23q28 68 84 68t97 -35.5t41 -70t-20 -57.5q-50 -57 -50 -423.5 t50 -690.5q23 -25 23 -66q1 -39 -23 -69q-24 -31 -63 -31q-67 0 -84 80q0 741 1 741l1 -243q-1 315 -19 470q-198 -276 -440 -526q-442 -456 -715 -457q-126 0 -211 101q-51 74 -51 237.5z" />
<glyph unicode="V" horiz-adv-x="1499" d="M28 1308q0 54 46 75l72 7q43 0 99 -112q500 -1015 595 -1075q97 241 194 483q182 422 323 592q9 11 54 105q22 48 83 48q87 0 87 -75q0 -55 -51 -78q-56 0 -264 -398t-275 -625q-23 -97 -48 -195q-13 -50 -48 -55q-82 -1 -164 -3q-45 178 -317 680.5t-280 537.5 q-105 0 -106 88z" />
<glyph unicode="W" horiz-adv-x="2220" d="M23 1346q0 49 83 83q12 2 23 2q92 0 92 -110q0 -62 -24 -110q60 -249 134 -545.5t154 -444.5q29 61 138 373.5t126 350.5q56 172 230 354q142 148 252 147q56 0 105 -38q69 -98 88 -170q38 -176 76.5 -357t76.5 -366q72 -312 132 -312q61 137 183 542t180 536 q0 127 60 127q82 0 99 -23.5t17 -103.5q-146 -195 -263.5 -551.5t-158.5 -592.5q0 -93 -17 -114t-100 -21q-32 0 -104 81q-94 106 -169 429q-20 81 -105 536q-49 263 -84 264q-12 2 -24 2q-184 0 -409 -517q-84 -193 -262 -733q-29 -63 -26.5 -63t-20.5 5t-58.5 5t-57 24 t-21.5 120q-74 273 -167 612t-137 444q-5 24 -23 69.5t-18 65.5z" />
<glyph unicode="X" horiz-adv-x="1538" d="M21 68q0 46 38 98q58 52 142.5 151.5t150.5 153.5q256 282 356 375q0 45 -124 149q-77 61 -155 123q-91 12 -122.5 24.5t-31.5 42.5t31 101q30 11 60 11t53 -20t73 -78q68 -39 301 -262q88 85 186.5 182t140.5 167q0 110 86 111q62 0 88 -46q10 -11 10 -25 q0 -31 -151 -176t-279 -304q67 -63 256 -281t301 -305q88 -32 88 -103q0 -39 -25 -66.5t-64 -27.5t-79 39q-9 34 -17 70q-20 45 -111 125q-10 9 -199.5 205.5t-249.5 222.5q-308 -274 -559 -559q0 -70 -16 -102q-26 -54 -100 -54h-1q-76 0 -77 58z" />
<glyph unicode="Y" horiz-adv-x="1277" d="M30 1379q0 44 48 77q31 13 55 13q71 0 120 -135q50 -33 226.5 -286.5t192.5 -273.5q113 113 232.5 270t204.5 271q0 129 75 129h1q28 0 49.5 -21t21.5 -51q2 -6 2 -13q0 -67 -235 -351.5t-268 -348.5q10 -17 10 -38q0 -78 -69 -78q-20 0 -42 11q-227 -272 -280 -418 q-16 -120 -90 -120q-39 0 -73 34t-34 74q0 59 76 84q60 92 302 451q0 46 -180 316.5t-217 299.5q-56 0 -92 30t-36 74z" />
<glyph unicode="Z" horiz-adv-x="1774" d="M100 194q0 44 59 57q40 10 150 10h21q245 164 472.5 391t357 411.5t129.5 195.5q-29 11 -120 11t-385 -28q-284 -27 -334 -27h-4h-33q-38 0 -95 -1h-7q-79 0 -98 45q0 120 66 120q26 0 73 -21.5t56 -21.5q132 19 514.5 34.5t434.5 19.5q49 27 86 27q70 0 71 -65 q0 -29 -25.5 -64t-160.5 -226.5t-281 -363.5q-302 -358 -507 -449q176 54 478 54h11q451 0 746 -84q92 -27 92 -83t-125 -55h-4q-61 20 -116 37q-113 34 -506.5 34t-630.5 -36q-30 -8 -117.5 -39.5t-127.5 -31.5q-70 0 -115 71q-24 50 -25 78z" />
<glyph unicode="[" horiz-adv-x="1109" d="M140 -146q0 87 51 138q12 36 47 650.5t34.5 676t-7.5 81.5q-28 80 -28 103q0 53 42 95.5t70.5 42.5t49 -12.5t39.5 -25.5q21 -9 88 -6l103 5q171 0 245 28q26 10 62 9q73 0 73 -37q0 -42 -32 -79t-89 -37l-348 -19q-67 0 -78 -3q-50 -11 -51 -62q-7 -176 -73 -1164 l-16 -246q0 -37 5.5 -43.5t46.5 -6.5q300 0 363 15t124 15q155 0 155 -65q0 -13 -7 -28q-25 -56 -105 -56q-38 0 -100.5 14.5t-74.5 13.5q-142 -7 -330 -28q-2 0 -48.5 -28t-112.5 -28q-98 0 -98 87z" />
<glyph unicode="\" horiz-adv-x="1081" d="M74 1624q-5 50 24.5 73.5t76.5 19.5q60 0 89 -42t30 -156q22 -28 277 -616.5t292 -622.5q20 -12 43 -26t40 -51t17 -61.5t-38 -75t-72.5 -50.5t-76.5 47t-42 91.5t-2 50.5t-6 10t-260.5 617t-290.5 632q-90 51 -101 160z" />
<glyph unicode="]" horiz-adv-x="1109" d="M94 1552q0 13 6 26q23 50 95 50q43 0 115 -19.5t84 -16.5q142 7 333 27q4 1 49.5 33.5t111.5 32.5q116 0 116 -89q3 -46 -44 -152q-20 -60 -72 -951q-5 -92 -3 -254t14 -197q30 -86 30 -105q0 -50 -41 -98q-20 -24 -69.5 -24t-91.5 23q-21 9 -89 6l-103 -5 q-169 0 -244 -27q-26 -10 -62 -10q-74 0 -74 37q0 43 32 79.5t88 36.5l349 20q64 0 79 4q50 13 52 63q20 531 47 1157v250q0 60 -13.5 60.5t-38.5 -11.5q-31 -16 -329 -13q-35 -1 -59.5 -7.5t-76.5 -5.5q-191 0 -191 80z" />
<glyph unicode="^" horiz-adv-x="981" d="M72 1162q0 52 65 79q60 94 148 175q72 62 133 117t96 55t85 -46q102 -122 279 -314q37 -40 37 -75q0 -62 -73 -63q-72 0 -73 76q0 16 4 35q-129 162 -257 257q-46 0 -158.5 -103.5t-112.5 -153.5q4 -16 4 -31q0 -78 -88.5 -78t-88.5 70z" />
<glyph unicode="_" horiz-adv-x="1171" d="M0 -85h1171v-106h-1171v106z" />
<glyph unicode="`" horiz-adv-x="418" d="M28 1459q0 88 70 88q14 0 30 -6q50 -19 139 -186.5t89 -265.5q0 -45 -24 -62q-6 0 -103 166t-101 166q-99 0 -100 100z" />
<glyph unicode="a" horiz-adv-x="1090" d="M33 124q0 39 23 105q211 367 787 699q25 15 51 15q75 0 75 -85q0 -13 -2 -26l-13 -237q0 -60 11 -109q0 -274 22 -320q47 -76 47 -96.5t-38 -44.5q-45 -19 -75 -19h-3q-65 0 -66 110q0 12 0.5 34.5t0.5 49.5t-6 49l4 87q3 69 3 115q0 87 -11 93q-125 -212 -312 -363 t-403 -183q-95 41 -95 126zM149 165q0 -43 60 -49q59 0 224 132q165 134 283 284q89 113 89 180q0 22 -10 40q-49 0 -130 -54t-149 -98q-367 -334 -367 -435z" />
<glyph unicode="b" horiz-adv-x="943" d="M39 1256q-1 8 -1 16q0 42 31 80q37 46 77 46t57 -50q14 -31 14 -52.5t-23.5 -93.5t-23.5 -171.5t33 -259.5q22 0 55.5 26t62.5 49q113 42 259 42h4q149 0 248 -53t99 -171q0 -25 -5 -52q-16 -89 -173 -231.5t-339 -244.5q-70 -143 -267 -144q-89 68 -89 159 q0 34 12.5 99.5t15.5 84.5q0 585 -47 921zM214 261q0 -68 19 -79q70 7 168 78l154 120l144 134q87 89 87 147q0 70 -121 110q-312 0 -432 -216q0 -16 -9.5 -121t-9.5 -173z" />
<glyph unicode="c" horiz-adv-x="1026" d="M39 211q0 26 3 55q74 238 310 426q161 130 347 203q92 36 153 35q63 -67 63 -96q0 -30 -41 -63q-30 -19 -52 -18.5t-55 10.5t-55 10q-77 0 -194 -99q-333 -282 -333 -435q0 -59 54 -91t128 -32q142 0 314.5 97.5t239.5 199.5q20 11 37 10q43 0 43 -56q0 -24 -10 -50 q-163 -149 -238 -187q-27 -14 -277 -96q-120 -39 -214 -39q-223 0 -223 216z" />
<glyph unicode="d" horiz-adv-x="1122" d="M-51 146.5q0 109.5 180 293.5q22 22 256 231q82 73 213 117t217 44q31 47 33 207t3 260t8 134q25 52 36 56.5t76 4.5q54 -21 54 -59t-54 -101q-2 -78 -2 -182q0 -207 7 -517q67 -8 68 -43q0 -44 -73 -84q-1 -40 -1 -92q0 -86 3 -203q20 -52 21 -97q0 -131 -142 -131 q-37 34 -37 101q56 98 56 181.5t-19 145.5q-162 -112 -322 -226q-299 -194 -449 -202q-132 52 -132 161.5zM74 153q0 -21 7 -40q22 -5 38.5 -5t27.5 5q107 47 400.5 229.5t296.5 184.5q22 69 22 87t-14 90q-16 25 -81.5 25t-180.5 -58q-226 -157 -301 -220 q-215 -181 -215 -298z" />
<glyph unicode="e" horiz-adv-x="1083" d="M67 214q0 25 3 52q51 163 131.5 270.5t152 161t122.5 90.5q57 47 163.5 90t180.5 43q18 0 32 -3q174 -35 174 -156q0 -33 -15 -72q-44 -83 -130.5 -133.5t-300.5 -136.5t-244 -102q-134 -68 -134 -127q0 -40 55 -75q33 -12 78 -12q151 0 371.5 108t304.5 204q20 22 43 23 q48 0 48 -53q0 -19 -13 -37q-169 -154 -254 -200t-316 -122q-114 -37 -211 -37q-241 0 -241 224zM217 337q72 69 310.5 176.5t284.5 136.5q84 52 84 95q0 22 -22 43q-19 19 -57 19h-4q-126 0 -330 -155t-266 -315z" />
<glyph unicode="f" horiz-adv-x="709" d="M-34 675q0 16 11 41q24 23 68.5 39.5t60.5 40.5q0 481 49 642q80 182 212 183q113 0 271 -138q57 -21 57 -60q0 -28 -24 -51t-51 -23q-45 0 -45 65q0 8 1 17q-87 101 -165 101q-119 0 -169 -207q-9 -35 -9 -121t4.5 -215t4.5 -157q186 49 284.5 85.5t127.5 36.5q1 1 2 1 q29 0 67 -15q39 -16 57 -21q10 -15 10 -27t-47 -35q-130 -12 -247 -57q-116 -52 -233 -105q-2 -11 -2 -48q0 -38 3 -85q2 -21 2 -74q0 -67 -2 -188q-3 -113 -3 -190q0 -68 2 -108q46 -41 46 -75q0 -58 -73 -58t-81 50q0 167 -12.5 437.5t-36.5 320.5q-6 -1 -48 -15 q-40 -12 -60 -12h-3q-29 0 -29 25z" />
<glyph unicode="g" horiz-adv-x="1045" d="M-187 -233.5q0 35.5 22 57t53 22.5q54 0 76 -61q47 -50 202.5 -87t299.5 -44q159 23 259 121q57 55 125 180q21 39 21 182q0 141 -56 456q-64 -92 -262 -198t-346 -106t-196 110q-9 28 -9 56q0 154 261 295q191 103 391 145q19 4 47 4t149 -47q46 17 76 17q44 0 44 -37 q0 -39 -39 -103q3 -103 28 -312.5t25 -308.5q0 -333 -235 -488q-141 -94 -281.5 -94t-322.5 62q-279 96 -303 102q-29 41 -29 76.5zM119 449q0 -40 82 -40q20 0 43 2q77 0 241 84t257 173q48 47 48 76q0 26 -41 38q-19 8 -45 8q-140 0 -444 -190q-141 -89 -141 -151z" />
<glyph unicode="h" horiz-adv-x="1119" d="M53 1419q0 40 38.5 68.5t86.5 28.5t61 -43q23 -42 23 -64t-18.5 -94.5t-18.5 -158.5q1 -86 15 -194q10 -77 10 -208q0 -54 -2 -118q-3 -100 -3 -172q0 -136 11 -173q74 135 298 312.5t384 177.5q36 0 66 -11q70 -41 70 -147q0 -33 -8 -100t-10 -94q-19 -80 -19 -142 q0 -79 30 -129q0 -82 -16.5 -99.5t-93.5 -19.5q-56 23 -56 64q0 24 20 61q35 238 35 335.5t-28 112.5q-23 6 -47 6q-137 0 -300 -140.5t-253 -280.5q-20 -69 -39 -138q-27 -61 -111 -61q-78 36 -78 83q0 32 38 96q-5 528 -8 626q-17 406 -77 616z" />
<glyph unicode="i" horiz-adv-x="329" d="M74 671.5q0 28.5 42 77.5q34 24 51 24t58 -24q18 -20 18 -49t-10 -123.5t-10 -188.5t13 -205q37 -76 37 -118q0 -67 -88 -67q-82 12 -82 88q0 20 6 82q8 75 8 263q0 56 -1 123q-6 20 -24 54.5t-18 63zM104 1158q0 87 67 87h2q15 0 30 -5q84 -33 84 -100q0 -46 -53 -82 h-31q-98 0 -99 100z" />
<glyph unicode="j" horiz-adv-x="585" d="M-410 -168.5q0 17.5 30.5 48t61.5 30.5q41 0 58 -56q-18 -50 -18 -78t24 -46.5t48 -35.5q75 -99 232 -100h2q156 0 258 100q169 162 168 344l-14 217q0 59 -13 124.5t-13 75.5q-40 80 -40 136.5t55 67.5q43 -4 55 -9q18 -9 41 -45q2 -71 22 -255.5t20 -284.5 q0 -437 -352 -566q-74 -27 -161 -28q-204 0 -346 125q-1 3 -58.5 73.5t-57.5 139.5q-2 5 -2 22.5zM190 1042q0 78 109 78q42 0 73 -26q30 -26 30 -56q0 -32 -34 -66q-32 -34 -75 -34t-73 32.5t-30 71.5z" />
<glyph unicode="k" horiz-adv-x="1225" d="M44 1366q0 87 87 87q63 -68 63 -187l-3 -126q4 -24 28.5 -323.5t40.5 -350.5q237 70 474 355q35 48 73.5 102t38.5 115q14 114 82 114q61 0 62 -114q-160 -288 -286 -421q-74 -78 -92 -98h6q80 0 174 24q96 25 183 25q62 5 115 5h17q230 0 230 -78q0 -14 -12 -29 q-1 1 -12 1q-57 0 -386 -26q-392 -31 -455 -53q-57 -75 -107 -75q-11 0 -79 22q-24 -49 -24 -108q0 -43 13 -90q12 -44 12 -76q0 -79 -71 -79q-34 0 -86 20q-14 16 -14 55t11 109.5t11 83.5v28q0 180 -23 444q-25 284 -49 536q-22 64 -22 108z" />
<glyph unicode="l" horiz-adv-x="440" d="M88 1427.5q0 81.5 75 81.5q33 0 79 -18q46 -39 46 -63t-17.5 -66t-17.5 -79v-32q0 -786 48 -1105q38 -36 38 -77q-1 -41 -25 -65q-21 -20 -55 -20q-6 0 -12 1q-88 8 -88 72v-3q2 0 14 92q0 605 -39 1102q-46 98 -46 179.5z" />
<glyph unicode="m" horiz-adv-x="1868" d="M23 57.5q0 34.5 38 94.5q22 141 51 265t29 154.5t-43 63.5q-20 34 -20 66q0 84 78 84q37 0 73 -31q20 -30 20 -111q0 -62 -12 -153q-13 -102 -13 -120q0 -19 5 -21q243 244 415 329t277 85q142 0 168 -153q0 -148 -26 -278q130 159 417 389q110 69 182 69q122 0 142 -206 q-16 -261 -16 -389v-15q22 -43 22 -77q0 -42 -33 -69q-30 -25 -71 -25q-83 0 -104 77q5 35 12 63q31 33 52 123t21 181q0 185 -79 191q-176 -56 -337.5 -238.5t-232.5 -375.5q-40 -30 -79.5 -30t-65.5 27.5t-26 66.5t28 73q1 6 26 139t25 206t-30 98h-16q-192 0 -406 -158 q-222 -165 -294 -344q8 -29 8 -51q0 -71 -97 -72q-18 0 -42 2q-46 36 -46 70.5z" />
<glyph unicode="n" horiz-adv-x="1283" d="M57 67q0 41 16 127.5t19 127.5q4 69 4 126q0 144 -27 211q-7 17 -7 45.5t18.5 58t36 29.5t23.5 -2q93 -29 93 -120q0 -13 -2 -20.5t-2 -11t-11.5 -84.5t-11.5 -127t5 -78q32 119 260 300q100 80 257.5 136.5t281.5 56.5q165 0 189 -111q7 -70 12 -140q0 -7 -15 -125.5 t-15 -201t31 -106.5q20 -73 20 -108q0 -65 -64 -66q-41 0 -112 25q-27 20 -27 64t34 107q19 162 19 283t-19 211q-19 50 -106.5 50t-252 -86.5t-233.5 -161.5q-100 -91 -147.5 -148t-85.5 -156q18 -47 18 -83q0 -97 -94 -97q-39 0 -77 23q-28 11 -28 52z" />
<glyph unicode="o" horiz-adv-x="1137" d="M11 210q0 92 79.5 200.5t186.5 193.5t240 193q150 111 231 119q27 -18 79 -33q42 20 105.5 20t134 -49.5t106.5 -134.5q12 -22 12 -50q0 -117 -190.5 -279.5t-437.5 -267.5q-187 -79 -321 -79q-43 0 -81 8q-144 46 -144 159zM180 303q-27 -52 -27 -86q0 -53 64 -65 q34 -7 63 -7q72 0 173 51q141 78 290 160t199 131q52 62 106 123q18 32 18 60q0 52 -51 81.5t-120 29.5q-109 0 -160 -62q-21 13 -42.5 12.5t-128.5 -44.5q-59 -17 -193.5 -147t-190.5 -237z" />
<glyph unicode="p" horiz-adv-x="1225" d="M52 -484q0 19 20 112q11 239 11 462q0 318 -22 603q-2 23 11 55q42 38 86 38q54 0 54 -66q0 -40 -21 -99q430 108 675 108q123 0 207 -25q131 -40 130 -115q0 -85 -161 -208q-102 -78 -269.5 -166.5t-168.5 -88.5q-164 -72 -421 -124q-1 -17 -1 -38q0 -58 6 -142 q9 -113 9 -164q4 -30 24 -86.5t20 -77.5q0 -57 -104 -57q-85 0 -85 79zM186 284q1 -152 14 -162q36 13 188.5 55.5t296.5 109.5t203 103q135 81 135 147q0 10 -3 20q-31 48 -178.5 48t-376.5 -60t-272 -101q-8 -8 -8 -120q0 -19 1 -40z" />
<glyph unicode="q" horiz-adv-x="1735" d="M42 229q8 78 122 201q133 105 265 211q90 69 161 69q38 0 92 -15q84 30 166 61q120 37 222.5 37t187.5 -13q104 -46 104 -142q0 -58 -42 -119q-99 -70 -111 -89q-30 -50 -30 -121q0 -117 60 -204q57 134 171 219q145 107 353 107q40 0 81 -4q63 -17 64 -81q0 -64 -72 -64 q-53 0 -128 46q-295 -77 -402 -341q-57 -139 -83 -497q17 -20 17 -45q0 -60 -67 -60q-43 0 -102 36q-7 25 -7 60.5t45 137t45 188.5q0 34 -6 71q-35 237 -94 450q-42 -23 -154 -67t-137 -50q-91 -46 -243.5 -91.5t-270.5 -45.5q-207 0 -207 155zM151 245q0 -43 66 -54 q52 0 51 25q0 12 -5 33q5 49 60 121t66 107q-58 -15 -148 -96.5t-90 -135.5zM366 208q125 9 309 87q97 40 249 117t167.5 88.5t24.5 48.5q29 43 48 43q5 0 29 -8t48 -8v36q-51 77 -170 77q-161 0 -469 -154q-111 -96 -150 -141q-86 -99 -86 -186z" />
<glyph unicode="r" horiz-adv-x="959" d="M38 802q0 56 47 63q63 0 83.5 -15t20.5 -58l-16 -174q0 -45 10 -83q29 80 106.5 164.5t161.5 106.5q81 22 150 22q82 0 149 -31q4 -2 107 -63h8q33 0 61 -28q32 -32 31 -59l-17 -37q-36 -21 -67 -21q-33 0 -62 23l-41 35q-60 62 -158 62q-141 0 -257.5 -125t-116.5 -334 q0 -69 15 -145q0 -74 -4 -85q-14 -35 -83 -38h-8q-72 0 -72 75q0 37 24 69q0 226 -36 445.5t-36 230.5z" />
<glyph unicode="s" horiz-adv-x="1120" d="M39 484q0 49 33 100t64 96q86 99 214.5 180.5t237 81.5t177.5 -71q11 -45 10 -73q0 -59 -47 -60q-15 0 -35 6q-54 48 -137 48q-133 0 -256.5 -104t-122.5 -235q31 -38 114 -39h4q82 0 199 19q120 19 133 20q173 40 388 40h10h14q80 0 106 -11q43 -38 43 -78t-50 -87 q-12 -11 -88 -67q-15 -41 -299.5 -146.5t-353.5 -105.5q-86 20 -86 107t80 87q31 0 72 -17q22 0 46.5 -14.5t54.5 -14.5t109.5 33.5t165.5 71.5q168 77 168 111q0 25 -81 25t-351.5 -41.5t-346.5 -41.5q-2 0 -3 -1q-74 0 -106 25q-80 80 -80 156z" />
<glyph unicode="t" horiz-adv-x="707" d="M-24 761q0 24 32 39q9 4 77 23q61 21 176 53q16 149 16 316q-29 95 -29 161.5t46 83.5q15 4 27 4h5q71 0 71 -94q0 -53 -23 -114v-329q62 24 217 78q30 32 59.5 32t50.5 -25.5t21 -55.5q0 -47 -48 -47q-11 0 -27 4q-52 -11 -273 -110q-12 -189 -12 -347v-24l9 -310 q0 -67 -41 -101q-9 -12 -29.5 -12t-41.5 23.5t-21 64t23 90.5v597q-15 2 -49.5 2t-106 -31t-86.5 -31q-43 0 -43 60z" />
<glyph unicode="u" horiz-adv-x="1067" d="M56 243q0 135 27.5 261.5t27.5 202.5q-28 47 -28 85q0 81 115 81q62 -44 62 -126q0 -48 -21 -91q-70 -223 -70 -393q0 -63 20 -74q17 -14 43 -13q107 0 312 195t288 358q7 59 14 120q6 38 73 65q110 0 110 -67q0 -6 -34 -143q-17 -313 -17 -369q0 -178 36 -260 q-16 -77 -83 -77t-84 82q38 252 38 341t-14 158q-129 -189 -331 -365.5t-370 -211.5q-5 -1 -10 -1q-104 0 -104 242z" />
<glyph unicode="v" horiz-adv-x="845" d="M55 677q0 34 55 82q34 18 59 17q54 0 64.5 -81.5t19.5 -151.5q12 -29 32 -147t50 -158q125 256 295 510q62 70 138 172q33 45 80 70h112q23 -30 23 -58t-45.5 -52t-89.5 -45q-136 -187 -271 -374q-144 -219 -177 -417q-10 -32 -42 -40l-64 -6q-98 15 -98 121q0 8 2 63 q1 12 1 24q0 152 -82 360q-62 77 -62 111z" />
<glyph unicode="w" horiz-adv-x="1398" d="M54 752q46 45 93.5 45t80.5 -74.5t33 -154.5q20 -177 92 -287q-4 -1 -4 5q0 51 134.5 249t245.5 249q26 13 48 13q46 0 50 -57q17 -80 86.5 -291.5t103.5 -250.5q57 237 128 418q150 382 292 383q56 -20 56 -71q0 -36 -44 -46q-77 -18 -136 -132q-37 -70 -88.5 -234 t-93.5 -243.5t-42 -162.5v-23q1 -14 1 -19q0 -40 -70 -65q-94 0 -121 44q-14 22 -19.5 114t-36.5 152q0 30 -39 150q-25 125 -81 125q-73 0 -180 -194q-69 -85 -103 -203q-1 -72 -2 -145q-14 -48 -114 -48h-16q-11 7 -25 27q-7 175 -66.5 360.5t-157.5 303.5q-5 36 -5 63z " />
<glyph unicode="x" horiz-adv-x="1197" d="M34 90q0 62 124 108q43 34 147 185t166 225q-116 160 -192 160h-1q-20 0 -29 41q0 97 49 97t128 -72.5t138 -126.5q90 53 146.5 154.5t105.5 101.5q23 -20 43 -32q16 -66 16 -78.5t-65 -59.5t-163 -172q236 -188 410 -324q126 -102 126 -154q0 -15 -12 -26 q-44 -40 -79 -40q-70 0 -70 103q-59 33 -225 173t-206 166q-50 -43 -195 -220t-147 -180q-27 -74 -51.5 -97.5t-98.5 -23.5q-65 48 -65 92z" />
<glyph unicode="y" horiz-adv-x="917" d="M25 705q0 74 101 74q48 -6 70 -53q25 -67 61 -156.5t117 -197.5q1 -1 50 -77.5t89 -105.5q114 165 212 491q-3 18 -16 54.5t-13 55.5q0 43 59 69q113 0 113 -103q0 -54 -39 -162q-40 -77 -113 -249t-112 -247q38 -31 38 -71t-19 -65t-38.5 -25t-30.5 4 q-107 -151 -157 -407q-30 -67 -91 -67q-32 0 -56.5 20.5t-24.5 48.5q0 47 67 82q49 104 106 227t57 188q-176 259 -345 587q-85 11 -85 85z" />
<glyph unicode="z" horiz-adv-x="1113" d="M49 54q0 89 66 115l154 46l322 290q221 207 221 284q0 12 -5 20q-123 -15 -269 -32.5t-232 -75.5q-25 -69 -103 -69q-73 0 -73 61v8q7 93 61 125q35 20 115 21q230 52 482 67q50 26 98 26q109 0 109 -110q0 -20 -4 -40q-61 -71 -179 -214l-156 -178q-119 -130 -223 -183 q442 104 589 104t147 -60q0 -44 -65 -44q-199 0 -287 -16t-447 -119q-51 -26 -101 -54q-55 -26 -104.5 -26t-115.5 54z" />
<glyph unicode="{" horiz-adv-x="665" d="M73 -51.5q0 45.5 21 78.5q79 112 177 252.5t90 173.5q-12 48 -21.5 64.5t-44 21t-91.5 40.5t-51 70q5 21 84.5 74.5t79.5 82.5q0 13 -140 199q-102 165 -102 307q0 53 15 102q78 263 266 263q69 0 146 -45t77 -88q0 -22 -21 -36.5t-39 -12.5q-26 15 -63 35 q-94 50 -164 -19q-96 -90 -96 -215t64 -248q32 -61 59 -82t60.5 -31t57.5 -31.5t49 -73t25 -77t-4 -34.5q-6 -20 -41 -44t-35 -32t4 -13q95 -109 95 -174q0 -59 -100 -221t-154.5 -228.5t-55 -84.5t36.5 -24q113 -19 160.5 -19t68.5 22q52 53 98.5 52.5t67.5 -39.5 q11 -20 11 -37q0 -44 -55 -70l-269 -8q-97 0 -144.5 9t-84.5 52t-37 88.5z" />
<glyph unicode="|" horiz-adv-x="389" d="M130 162v1496h125v-1496h-125z" />
<glyph unicode="}" horiz-adv-x="665" d="M45 1647q0 44 55 69q7 0 147.5 14.5t196 14.5t94 -7t75.5 -50.5t36.5 -89t-17.5 -72t-165 -198t-140 -203.5q13 -51 21 -67t42.5 -20t92.5 -39.5t50 -70.5q-5 -21 -84 -73.5t-79 -82.5q0 -11 6 -20q53 -70 136 -279.5t83 -377.5q0 -67 -16 -120q-77 -262 -266 -263 q-69 0 -146.5 45t-77.5 88q0 23 21.5 38t38.5 12q26 -15 63 -34.5t80.5 -19.5t83.5 39q91 86 91 236q0 83 -29 167q-112 325 -181 384q-32 27 -56 79t-24 77.5t4.5 40t39.5 39t35 32t-3 11.5q-97 109 -97 175q0 71 143 246q67 79 135 159.5t68 98.5q0 34 -122.5 34 t-165.5 -44t-90 -44t-68 39q-11 20 -11 37z" />
<glyph unicode="~" horiz-adv-x="720" d="M20 848.5q0 96.5 86 180.5q76 92 136 92t126.5 -107.5t98.5 -107.5t71 67q81 140 126 141q29 0 29 -59q0 -101 -66 -190q-108 -144 -176 -144q-56 0 -111.5 126t-97.5 126t-91.5 -110.5t-78.5 -110.5q-52 0 -52 96.5z" />
<glyph unicode="&#xad;" d="M45 656q0 54 80 62q31 3 71.5 -14t84.5 -14q114 -5 316 0q26 5 63 17t55 12t47.5 -23t29.5 -57.5t-19 -45.5q-50 -29 -79 -29t-63 9.5t-111.5 9.5t-175.5 -5l-99 -4l-120 -8q-80 0 -80 90z" />
<glyph unicode="&#x2000;" horiz-adv-x="874" />
<glyph unicode="&#x2001;" horiz-adv-x="1749" />
<glyph unicode="&#x2002;" horiz-adv-x="874" />
<glyph unicode="&#x2003;" horiz-adv-x="1749" />
<glyph unicode="&#x2004;" horiz-adv-x="583" />
<glyph unicode="&#x2005;" horiz-adv-x="437" />
<glyph unicode="&#x2006;" horiz-adv-x="291" />
<glyph unicode="&#x2007;" horiz-adv-x="291" />
<glyph unicode="&#x2008;" horiz-adv-x="218" />
<glyph unicode="&#x2009;" horiz-adv-x="349" />
<glyph unicode="&#x200a;" horiz-adv-x="97" />
<glyph unicode="&#x2010;" d="M45 656q0 54 80 62q31 3 71.5 -14t84.5 -14q114 -5 316 0q26 5 63 17t55 12t47.5 -23t29.5 -57.5t-19 -45.5q-50 -29 -79 -29t-63 9.5t-111.5 9.5t-175.5 -5l-99 -4l-120 -8q-80 0 -80 90z" />
<glyph unicode="&#x2011;" d="M45 656q0 54 80 62q31 3 71.5 -14t84.5 -14q114 -5 316 0q26 5 63 17t55 12t47.5 -23t29.5 -57.5t-19 -45.5q-50 -29 -79 -29t-63 9.5t-111.5 9.5t-175.5 -5l-99 -4l-120 -8q-80 0 -80 90z" />
<glyph unicode="&#x2012;" d="M45 656q0 54 80 62q31 3 71.5 -14t84.5 -14q114 -5 316 0q26 5 63 17t55 12t47.5 -23t29.5 -57.5t-19 -45.5q-50 -29 -79 -29t-63 9.5t-111.5 9.5t-175.5 -5l-99 -4l-120 -8q-80 0 -80 90z" />
<glyph unicode="&#x2013;" horiz-adv-x="1142" d="M45 656q0 54 110 62q42 3 97.5 -14t116.5 -14q156 -5 433 0q35 5 86 17t75.5 12t65 -23t40.5 -57.5t-26 -45.5q-69 -29 -108.5 -29t-86 9.5t-153 9.5t-240.5 -5l-136 -4l-164 -8q-110 0 -110 90z" />
<glyph unicode="&#x2014;" horiz-adv-x="2166" d="M45 656q0 54 219 62q85 3 196 -14t232 -14q313 -5 866 0q72 5 173.5 17t150.5 12t130 -23t81 -57.5t-52 -45.5q-137 -29 -216.5 -29t-173 9.5t-306 9.5t-480.5 -5l-272 -4l-329 -8q-219 0 -219 90z" />
<glyph unicode="&#x2018;" horiz-adv-x="388" d="M86 1286q-12 81 16 242q9 33 77 94t107 61q29 0 29 -38.5t-27.5 -54.5t-54.5 -32q-66 -56 -66 -88q0 -8 3.5 -17.5t33.5 -29.5q50 -33 50 -75t-27 -70q-43 -25 -88 -26q-45 0 -53 34z" />
<glyph unicode="&#x2019;" horiz-adv-x="398" d="M84 1233.5q0 38.5 28 54.5l54 31q65 56 65 90q0 23 -33 45q-52 34 -52 76t26 70q43 25 87 26q45 0 52 -34q13 -65 -15 -242q-9 -33 -76.5 -94t-105.5 -61q-30 0 -30 38.5z" />
<glyph unicode="&#x201c;" horiz-adv-x="750" d="M86 1331q-12 81 16 242q9 33 77 94t107 61q29 0 29 -39t-27.5 -54.5t-54.5 -31.5q-66 -56 -66 -88q0 -8 3.5 -17.5t33.5 -29.5q50 -33 50 -75t-27 -71q-44 -25 -88.5 -25t-52.5 34zM368 1331q-14 70 15 242q9 33 77 94t106 61q30 0 30 -39t-28 -55l-55 -31 q-66 -56 -66 -89q0 -22 34 -44q56 -36 54.5 -77.5t-27.5 -70.5q-45 -25 -89.5 -25t-50.5 34z" />
<glyph unicode="&#x201d;" horiz-adv-x="656" d="M84 1252q0 39 28 55l54 30q65 55 65 90q0 8 -3.5 18t-32.5 29q-49 32 -49 74t26 71q44 25 88 25t51 -35q13 -64 -15 -242q-10 -32 -77 -92.5t-105 -61.5q-30 0 -30 39zM365 1252q0 39 27.5 54.5t54.5 30.5q65 55 65 91q0 22 -32 44q-53 35 -53 77t26 70q44 25 88 25 q45 0 52 -35q13 -68 -17 -242q-9 -32 -76 -92.5t-105 -61.5q-30 0 -30 39z" />
<glyph unicode="&#x202f;" horiz-adv-x="349" />
<glyph unicode="&#x205f;" horiz-adv-x="437" />
<glyph unicode="&#xe000;" horiz-adv-x="960" d="M0 0v961h961v-961h-961z" />
</font>
</defs>
</svg>
